<svg id="Layer_1" data-name="Layer 1" xmlns="http://www.w3.org/2000/svg" viewBox="0 0 860.09 317.78"><defs><style>.cls-1{fill:#34a9dd;}</style></defs><title>Yam Logo</title><path class="cls-1" d="M273.9,343.06a7.21,7.21,0,0,1,7.21,7.21V554c0,58.22-46.34,105.19-101.88,105.19-67.4,0-91.4-48.38-99.44-64.21h49.27s10.77,23,46.43,23,63.74-32.3,63.74-60.64v-24c-10.41,7.13-35.48,20.49-63.74,20.49-60.6,0-105.62-50-105.62-102V350.27a7.21,7.21,0,0,1,7.21-7.21h27.8a7.21,7.21,0,0,1,7.21,7.21v95.94c0,44.13,31.34,65.7,64.68,65.7,35.66,0,62.46-31.31,62.46-64.85V350.27a7.21,7.21,0,0,1,7.21-7.21Z" transform="translate(-69.87 -341.45)"/><path class="cls-1" d="M416.77,342.72c-46.88,0-106.43,33.28-106.43,99,0,58.3,37.83,111.75,85.83,111.75h119a6.76,6.76,0,0,0,6.76-6.76V437.87C521.94,393.7,480.17,342.72,416.77,342.72ZM447.4,484.34c5.88,7,29.71,36.68,29.71,36.68L371.53,491.84c-28.15-7.78-37.44-43-16.79-63.68L397,385.94c20.67-20.67,56-11.33,63.7,16.86l28.54,104s-22.3-17-36.38-28.3c-18.4-14.79-15.32-35.4-30.34-35.4a11.83,11.83,0,0,0-11.83,11.83C410.64,470.43,430.85,464.43,447.4,484.34Z" transform="translate(-69.87 -341.45)"/><path class="cls-1" d="M824.44,341.45c58-.67,105.52,47.42,105.52,105.45V548.77a4.09,4.09,0,0,1-4.09,4.08H888V447.79a63.53,63.53,0,0,0-63.53-63.53h0a63.53,63.53,0,0,0-63.53,63.53v101a4.09,4.09,0,0,1-4.09,4.08H719V447.79a63.53,63.53,0,0,0-63.53-63.53h0a63.53,63.53,0,0,0-63.54,63.53v101a4.08,4.08,0,0,1-4.08,4.08H550V445.7A104.24,104.24,0,0,1,654.21,341.45C677,341.45,710,348.77,740,383,769.93,353.85,795.39,341.79,824.44,341.45Z" transform="translate(-69.87 -341.45)"/></svg>